# xmcd
#
# Track frame offsets: 
#        150
#        19478
#        31873
#        42704
#        55465
#        65478
#        80855
#        88681
#        96287
#        103963
#        119880
#
# Disc length: 1704 seconds
#
# Revision: 0
# Processed by: cddbd v1.5.2PL0 Copyright (c) Steve Scherf et al.
# Submitted via: ExactAudioCopy v0.95b4
#
DISCID=a806a60b
DTITLE=Adrian Aaby - Heated Dreams
DYEAR=2003
DGENRE=Blues
TTITLE0=Smokin' Heart
TTITLE1=Be There Soon
TTITLE2=Rosy Flame
TTITLE3=Texi-Bump
TTITLE4=Full Sail
TTITLE5=Lost At Dawn
TTITLE6=Steppin' On Me
TTITLE7=Blues 101
TTITLE8=Blues 201
TTITLE9=Leave It To You
TTITLE10=Shakin' Break
EXTD=
EXTT0=
EXTT1=
EXTT2=
EXTT3=
EXTT4=
EXTT5=
EXTT6=
EXTT7=
EXTT8=
EXTT9=
EXTT10=
PLAYORDER=
